<svg width="278" height="278" viewBox="0 0 278 278" fill="none" xmlns="http://www.w3.org/2000/svg">
<path d="M260.475 274.741V200.685C260.475 185.691 248.32 173.536 233.327 173.536H124.733C109.739 173.536 97.5845 185.691 97.5845 200.685V274.741H260.475Z" fill="#4671C6"/>
<path d="M179.093 240.593C178.229 240.593 177.448 240.081 177.102 239.29L148.768 174.405C148.288 173.306 148.791 172.026 149.89 171.546C150.987 171.066 152.268 171.567 152.749 172.667L179.091 232.989L205.372 172.67C205.85 171.569 207.131 171.066 208.231 171.546C209.331 172.024 209.834 173.305 209.355 174.404L181.084 239.289C180.739 240.08 179.958 240.592 179.093 240.593C179.094 240.593 179.094 240.593 179.093 240.593Z" fill="#3762CC"/>
<path d="M260.475 276.913H97.5845C96.3856 276.913 95.4126 275.94 95.4126 274.741V200.685C95.4126 184.517 108.566 171.364 124.733 171.364H233.327C249.494 171.364 262.647 184.517 262.647 200.685V274.741C262.647 275.941 261.674 276.913 260.475 276.913ZM99.7564 272.569H258.303V200.685C258.303 186.913 247.099 175.708 233.327 175.708H124.733C110.961 175.708 99.7564 186.913 99.7564 200.685V272.569Z" fill="#3762CC"/>
<path d="M113.874 60.9016V87.6927C113.874 123.677 143.045 152.849 179.03 152.849C215.015 152.849 244.186 123.677 244.186 87.6927V60.9016H113.874Z" fill="#4671C6"/>
<path d="M179.03 155.021C141.905 155.021 111.702 124.818 111.702 87.6927V60.9016C111.702 59.7027 112.675 58.7297 113.874 58.7297H244.186C245.385 58.7297 246.358 59.7027 246.358 60.9016V87.6927C246.358 124.818 216.155 155.021 179.03 155.021ZM116.045 63.0734V87.6927C116.045 122.422 144.3 150.677 179.03 150.677C213.759 150.677 242.014 122.422 242.014 87.6927V63.0734H116.045Z" fill="#3762CC"/>
<path d="M150.936 142.029V167.883L179.061 201.802L207.187 167.883V142.029H150.936Z" fill="#F9CFCF"/>
<path d="M179.061 203.974C178.415 203.974 177.802 203.686 177.389 203.188L149.263 169.268C148.941 168.88 148.764 168.389 148.764 167.883V142.029C148.764 140.83 149.737 139.857 150.936 139.857H207.187C208.386 139.857 209.359 140.83 209.359 142.029V167.883C209.359 168.389 209.182 168.88 208.859 169.268L180.734 203.188C180.321 203.686 179.707 203.974 179.061 203.974ZM153.107 167.099L179.061 198.399L205.015 167.099V144.199H153.107V167.099Z" fill="#3762CC"/>
<path d="M150.936 167.883L134.86 173.66L141.389 199.766C141.831 201.534 144.122 202.004 145.225 200.553L154.045 188.952L179.06 201.802L150.936 167.883Z" fill="#E0EBFC"/>
<path d="M207.187 167.883L223.262 173.66L216.734 199.766C216.292 201.534 214 202.004 212.898 200.553L204.078 188.952L179.062 201.802L207.187 167.883Z" fill="#E0EBFC"/>
<path d="M179.082 141.019C173.649 141.019 168.604 139.074 165.24 135.684C164.395 134.832 164.4 133.456 165.251 132.611C166.104 131.768 167.479 131.772 168.324 132.623C170.877 135.198 174.798 136.674 179.081 136.674C183.33 136.674 187.232 135.197 189.785 132.623C190.63 131.772 192.005 131.767 192.857 132.611C193.708 133.456 193.714 134.831 192.869 135.684C189.506 139.074 184.48 141.019 179.082 141.019Z" fill="#3762CC"/>
<path d="M208.463 119.195C204.51 119.195 201.305 115.99 201.305 112.036V104.402C201.305 100.449 204.509 97.2435 208.463 97.2435C212.416 97.2435 215.622 100.448 215.622 104.402V112.037C215.622 115.99 212.416 119.195 208.463 119.195Z" fill="#3762CC"/>
<path d="M149.645 119.195C145.693 119.195 142.487 115.99 142.487 112.036V104.402C142.487 100.449 145.692 97.2435 149.645 97.2435C153.598 97.2435 156.804 100.448 156.804 104.402V112.037C156.804 115.99 153.599 119.195 149.645 119.195Z" fill="#3762CC"/>
<path d="M235.694 90.4282V85.1256C235.694 54.1297 210.339 29.0032 179.061 29.0032C147.784 29.0032 122.429 54.1297 122.429 85.1256V90.4282C112.594 90.2284 104.793 98.0623 104.793 107.533C104.793 117.644 113.621 125.643 123.925 124.554C129.77 149.384 152.23 167.883 179.061 167.883C205.895 167.883 228.354 149.382 234.198 124.554C244.488 125.642 253.33 117.659 253.33 107.533C253.33 98.058 245.522 90.2295 235.694 90.4282Z" fill="#F9CFCF"/>
<path d="M179.082 141.019C173.649 141.019 168.604 139.075 165.24 135.685C164.395 134.833 164.4 133.457 165.251 132.613C166.104 131.769 167.479 131.773 168.324 132.624C170.878 135.199 174.798 136.674 179.082 136.674C183.331 136.674 187.232 135.198 189.785 132.624C190.63 131.773 192.005 131.768 192.857 132.613C193.708 133.457 193.714 134.832 192.869 135.685C189.506 139.074 184.481 141.019 179.082 141.019Z" fill="#3762CC"/>
<path d="M208.463 119.195C204.51 119.195 201.305 115.99 201.305 112.036V104.402C201.305 100.449 204.509 97.2435 208.463 97.2435C212.416 97.2435 215.622 100.448 215.622 104.402V112.037C215.622 115.99 212.416 119.195 208.463 119.195Z" fill="#3762CC"/>
<path d="M149.645 119.195C145.693 119.195 142.487 115.99 142.487 112.036V104.402C142.487 100.449 145.692 97.2435 149.645 97.2435C153.598 97.2435 156.804 100.448 156.804 104.402V112.037C156.804 115.99 153.599 119.195 149.645 119.195Z" fill="#3762CC"/>
<path d="M235.694 90.4282V85.1256C235.694 54.1297 210.339 29.0032 179.061 29.0032C147.784 29.0032 122.429 54.1297 122.429 85.1256V90.4282C112.594 90.2284 104.793 98.0623 104.793 107.533C104.793 117.644 113.621 125.643 123.925 124.554C129.77 149.384 152.23 167.883 179.061 167.883C205.895 167.883 228.354 149.382 234.198 124.554C244.488 125.642 253.33 117.659 253.33 107.533C253.33 98.058 245.522 90.2295 235.694 90.4282Z" fill="#F9CFCF"/>
<path d="M179.082 141.019C173.649 141.019 168.604 139.075 165.24 135.685C164.395 134.833 164.4 133.457 165.251 132.613C166.104 131.769 167.479 131.773 168.324 132.624C170.878 135.199 174.798 136.674 179.082 136.674C183.331 136.674 187.232 135.198 189.785 132.624C190.63 131.773 192.005 131.768 192.857 132.613C193.708 133.457 193.714 134.832 192.869 135.685C189.506 139.074 184.481 141.019 179.082 141.019Z" fill="#3762CC"/>
<path d="M208.463 119.195C204.51 119.195 201.305 115.99 201.305 112.036V104.402C201.305 100.449 204.509 97.2435 208.463 97.2435C212.416 97.2435 215.622 100.448 215.622 104.402V112.037C215.622 115.99 212.416 119.195 208.463 119.195Z" fill="#3762CC"/>
<path d="M149.645 119.195C145.693 119.195 142.487 115.99 142.487 112.036V104.402C142.487 100.449 145.692 97.2435 149.645 97.2435C153.598 97.2435 156.804 100.448 156.804 104.402V112.037C156.804 115.99 153.599 119.195 149.645 119.195Z" fill="#3762CC"/>
<path d="M179.061 170.055C152.206 170.055 129.105 152.37 122.256 126.821C117.391 126.858 112.638 125.093 109.006 121.825C104.948 118.174 102.621 112.964 102.621 107.532C102.621 102.331 104.676 97.4553 108.406 93.7989C111.637 90.6334 115.782 88.7341 120.257 88.3312V85.1234C120.257 52.9796 146.636 26.8292 179.061 26.8292C211.486 26.8292 237.866 52.9796 237.866 85.1234V88.3312C242.341 88.7341 246.486 90.6334 249.718 93.7989C253.448 97.4542 255.503 102.331 255.503 107.531C255.503 112.962 253.175 118.172 249.119 121.822C245.529 125.051 240.853 126.82 236.039 126.82C235.982 126.82 235.925 126.82 235.868 126.82C229.018 152.37 205.918 170.055 179.061 170.055ZM123.926 122.381C124.923 122.381 125.806 123.066 126.038 124.055C131.811 148.581 153.616 165.711 179.061 165.711C204.507 165.711 226.31 148.582 232.084 124.056C232.335 122.992 233.336 122.274 234.427 122.394C238.726 122.847 243.024 121.464 246.214 118.595C249.356 115.767 251.159 111.735 251.159 107.533C251.159 103.51 249.568 99.7357 246.678 96.9036C243.759 94.0443 239.865 92.5067 235.74 92.6001C235.155 92.6218 234.593 92.3894 234.176 91.98C233.759 91.5717 233.524 91.0124 233.524 90.4282V85.1255C233.524 55.3774 209.093 31.1751 179.063 31.1751C149.034 31.1751 124.6 55.3774 124.6 85.1255V90.4282C124.6 91.0124 124.366 91.5706 123.949 91.98C123.532 92.3883 122.974 92.6196 122.385 92.6001C118.247 92.5099 114.363 94.0443 111.447 96.9036C108.557 99.7347 106.966 103.51 106.966 107.534C106.966 111.736 108.77 115.769 111.913 118.597C115.101 121.465 119.397 122.848 123.698 122.394C123.774 122.385 123.85 122.381 123.926 122.381Z" fill="#3762CC"/>
<path d="M120.273 276.913C119.074 276.913 118.101 275.94 118.101 274.741V201.678C118.101 200.479 119.074 199.506 120.273 199.506C121.472 199.506 122.445 200.479 122.445 201.678V274.741C122.445 275.941 121.472 276.913 120.273 276.913Z" fill="#3762CC"/>
<path d="M237.787 276.913C236.588 276.913 235.615 275.94 235.615 274.741V201.678C235.615 200.479 236.588 199.506 237.787 199.506C238.985 199.506 239.958 200.479 239.958 201.678V274.741C239.958 275.941 238.985 276.913 237.787 276.913Z" fill="#3762CC"/>
<path d="M244.186 74.2043H113.874V59.0044C113.874 28.2159 138.833 3.25565 169.622 3.25565H188.438C219.227 3.25565 244.187 28.2148 244.187 59.0044V74.2043H244.186Z" fill="#E0EBFC"/>
<path d="M240.277 81.7374L244.249 74.2043H113.874L117.846 81.7374C120.665 87.0824 126.211 90.4282 132.254 90.4282H225.868C231.912 90.4282 237.459 87.0824 240.277 81.7374Z" fill="#E0EBFC"/>
<path d="M237.787 245.931H260.475V274.741H237.787V245.931Z" fill="#F9CFCF"/>
<path d="M97.5845 245.931H120.273V274.741H97.5845V245.931Z" fill="#F9CFCF"/>
<path d="M260.475 276.913H237.787C236.588 276.913 235.615 275.94 235.615 274.741V245.931C235.615 244.732 236.588 243.759 237.787 243.759H260.475C261.674 243.759 262.647 244.732 262.647 245.931V274.741C262.647 275.941 261.674 276.913 260.475 276.913ZM239.958 272.569H258.303V248.103H239.958V272.569Z" fill="#3762CC"/>
<path d="M120.273 276.913H97.5845C96.3856 276.913 95.4126 275.94 95.4126 274.741V245.931C95.4126 244.732 96.3856 243.759 97.5845 243.759H120.273C121.472 243.759 122.445 244.732 122.445 245.931V274.741C122.445 275.941 121.472 276.913 120.273 276.913ZM99.7564 272.569H118.101V248.103H99.7564V272.569Z" fill="#3762CC"/>
<path d="M169.185 61.1741C160.761 57.7523 156.804 49.863 156.804 40.8019C156.804 31.502 160.877 23.402 169.552 19.9324C175.327 17.6226 183.017 17.7649 189.323 21.1323C191.74 22.4876 192.096 25.2318 190.465 27.0301C188.584 29.1064 186.426 27.7131 184.464 26.9573C177.84 24.414 166.581 24.4227 166.581 40.5978C166.581 49.0073 169.859 55.3209 178.376 55.3209C181.304 55.3209 184.377 54.4619 187.597 52.7451C189.212 51.9393 190.737 52.7831 191.461 54.1796C192.216 55.6369 192.055 57.6481 190.027 59.0967C184.163 63.169 175.41 63.7033 169.185 61.1741Z" fill="#4671C6"/>
<path d="M244.186 76.3762H113.874C112.675 76.3762 111.702 75.4032 111.702 74.2043V59.0044C111.702 27.067 137.685 1.08485 169.622 1.08485H188.437C220.375 1.08485 246.358 27.0681 246.358 59.0044V74.2043C246.358 75.4042 245.385 76.3762 244.186 76.3762ZM116.045 72.0324H242.014V59.0044C242.014 29.4626 217.98 5.4286 188.437 5.4286H169.622C140.079 5.4286 116.045 29.4626 116.045 59.0044V72.0324Z" fill="#3762CC"/>
<path d="M225.868 92.6001H132.254C125.386 92.6001 119.128 88.8253 115.925 82.7506L111.953 75.2175C111.597 74.5442 111.62 73.7341 112.014 73.0825C112.408 72.431 113.113 72.0324 113.874 72.0324H244.249C245.01 72.0324 245.716 72.431 246.108 73.0825C246.501 73.7352 246.525 74.5442 246.17 75.2175L242.198 82.7506C238.994 88.8253 232.737 92.6001 225.868 92.6001ZM117.475 76.3762L119.767 80.7242C122.217 85.3699 127.001 88.2563 132.254 88.2563H225.868C231.121 88.2563 235.906 85.3699 238.356 80.7242L240.648 76.3762H117.475Z" fill="#3762CC"/>
<path d="M179.06 203.974C178.724 203.974 178.384 203.896 178.069 203.734L154.673 191.716L146.956 201.868C145.936 203.209 144.274 203.836 142.625 203.494C140.973 203.155 139.693 201.929 139.284 200.294L132.755 174.187C132.484 173.104 133.077 171.993 134.127 171.615L150.202 165.838C151.064 165.529 152.026 165.792 152.609 166.496L180.735 200.415C181.393 201.209 181.403 202.357 180.756 203.16C180.332 203.689 179.702 203.974 179.06 203.974ZM137.445 175.039L143.497 199.239L152.317 187.638C152.954 186.8 154.101 186.54 155.038 187.021L170.62 195.026L150.236 170.442L137.445 175.039Z" fill="#3762CC"/>
<path d="M179.062 203.974C178.421 203.974 177.792 203.689 177.367 203.162C176.721 202.357 176.731 201.21 177.389 200.416L205.515 166.497C206.098 165.793 207.061 165.528 207.921 165.839L223.996 171.616C225.046 171.994 225.639 173.105 225.369 174.188L218.84 200.295C218.431 201.93 217.151 203.156 215.499 203.495C213.847 203.837 212.188 203.21 211.168 201.869L203.45 191.717L180.055 203.735C179.739 203.896 179.399 203.974 179.062 203.974ZM204.076 186.78C204.736 186.78 205.383 187.082 205.806 187.638L214.626 199.239L220.678 175.039L207.886 170.442L187.502 195.026L203.084 187.021C203.4 186.858 203.74 186.78 204.076 186.78Z" fill="#3762CC"/>
<path d="M179.061 228.284C173.551 228.284 169.085 232.75 169.085 238.26C169.085 238.696 169.122 239.122 169.176 239.544L170.682 260.623H179.061V248.237C184.571 248.237 189.038 243.77 189.038 238.26C189.038 232.751 184.571 228.284 179.061 228.284Z" fill="#6BDDDD"/>
<path d="M179.061 262.796H170.682C169.543 262.796 168.597 261.915 168.516 260.779L167.014 239.759C166.945 239.204 166.913 238.727 166.913 238.261C166.913 231.562 172.363 226.112 179.062 226.112C185.762 226.112 191.212 231.562 191.212 238.261C191.212 244.219 186.901 249.189 181.234 250.215V260.624C181.233 261.824 180.261 262.796 179.061 262.796ZM172.704 258.452H176.889V248.238C176.889 247.039 177.862 246.066 179.061 246.066C183.365 246.066 186.867 242.565 186.867 238.26C186.867 233.955 183.366 230.454 179.061 230.454C174.757 230.454 171.256 233.955 171.256 238.26C171.256 238.554 171.278 238.874 171.329 239.267C171.334 239.308 171.338 239.348 171.341 239.388L172.704 258.452Z" fill="#3762CC"/>
<path d="M134.784 134.947C123.048 118.583 103.879 107.912 82.2055 107.912C46.5769 107.912 17.5259 136.81 17.5259 172.591C17.5259 172.601 17.527 172.61 17.527 172.62C17.5487 208.062 46.2544 237.271 82.2065 237.271C135.011 237.272 165.128 177.252 134.784 134.947Z" fill="#F9A7A7"/>
<path d="M30.8895 213.419C30.2661 213.419 29.6461 213.152 29.2171 212.634C28.4504 211.711 28.5786 210.342 29.5016 209.576C40.5543 200.402 46.894 186.922 46.894 172.591C46.894 158.296 40.5804 144.837 29.5722 135.665C28.6503 134.897 28.5265 133.528 29.2942 132.606C30.062 131.684 31.4313 131.56 32.3533 132.328C44.3551 142.327 51.2388 157.003 51.2388 172.591C51.2388 188.218 44.3279 202.917 32.2773 212.919C31.8701 213.255 31.3781 213.419 30.8895 213.419Z" fill="#3762CC"/>
<path d="M125.249 222.552C125.027 222.552 124.801 222.518 124.58 222.446C102.896 215.429 88.3269 195.394 88.3269 172.591C88.3269 149.838 102.855 129.816 124.479 122.771C125.618 122.397 126.845 123.022 127.216 124.163C127.588 125.303 126.966 126.529 125.824 126.9C105.994 133.363 92.6706 151.724 92.6706 172.592C92.6706 193.504 106.032 211.878 125.918 218.314C127.059 218.683 127.685 219.908 127.315 221.049C127.017 221.967 126.165 222.552 125.249 222.552Z" fill="#3762CC"/>
<path d="M80.9512 238.847C80.2247 238.847 79.5145 238.482 79.1029 237.819C68.3131 220.426 62.3719 197.261 62.3719 172.592C62.3719 147.887 68.3293 124.698 79.1464 107.297C79.7795 106.279 81.1195 105.966 82.137 106.599C83.1556 107.232 83.4684 108.571 82.8353 109.59C72.4407 126.312 66.7156 148.687 66.7156 172.592C66.7156 196.462 72.4255 218.814 82.7951 235.53C83.4271 236.549 83.1133 237.888 82.0936 238.521C81.7374 238.741 81.3421 238.847 80.9512 238.847Z" fill="#3762CC"/>
<path d="M82.2054 183.278C59.265 183.278 36.8795 180.366 17.4705 174.857C16.3162 174.53 15.6472 173.329 15.9752 172.174C16.3021 171.02 17.5031 170.35 18.6575 170.679C37.6853 176.08 59.6603 178.935 82.2065 178.935C104.823 178.935 126.857 176.063 145.928 170.63C147.084 170.301 148.283 170.97 148.612 172.123C148.941 173.277 148.272 174.478 147.118 174.807C127.665 180.349 105.219 183.278 82.2054 183.278Z" fill="#3762CC"/>
<path d="M82.2044 239.444C45.365 239.444 15.3758 209.468 15.353 172.622C15.353 135.73 45.3422 105.741 82.2044 105.741C103.684 105.741 123.999 116.187 136.548 133.682C151.154 154.046 153.056 180.666 141.511 203.155C129.847 225.877 107.675 239.444 82.2044 239.444ZM82.2054 110.084C47.7378 110.084 19.6967 138.125 19.6967 172.592C19.7184 207.071 47.7584 235.1 82.2044 235.1C106.014 235.1 126.741 222.416 137.648 201.17C148.445 180.137 146.672 155.248 133.02 136.213C121.285 119.852 102.288 110.084 82.2054 110.084Z" fill="#3762CC"/>
<path d="M110.188 232.407C110.188 229.346 107.704 226.864 104.643 226.864C89.5084 226.864 84.0429 226.859 81.8656 226.866C80.7188 226.871 79.5807 226.991 78.4568 227.225L63.789 230.285L58.2801 229.463L40.601 225.465C40.462 225.433 40.3219 225.406 40.1829 225.383C36.2279 224.738 34.7532 230.429 38.4791 231.906L63.4079 241.788C64.5329 242.235 65.7318 242.463 66.9415 242.463H82.0371L80.9914 274.742L95.4962 274.744V274.742H110.189L110.188 232.407Z" fill="#F9CFCF"/>
<path d="M95.4952 276.915L80.9903 276.913C80.4017 276.913 79.8392 276.674 79.4298 276.252C79.0204 275.829 78.8 275.258 78.8195 274.671L79.7925 244.632H66.9415C65.4505 244.632 63.9921 244.354 62.6076 243.805L37.6788 233.923C34.9835 232.854 33.5924 230.032 34.3721 227.213C35.1474 224.407 37.6864 222.77 40.5326 223.237C40.7085 223.266 40.8931 223.301 41.0767 223.343L58.6797 227.325L63.725 228.078L78.0127 225.097C79.2778 224.834 80.57 224.698 81.8569 224.692C83.2382 224.688 85.9411 224.689 91.5945 224.689L104.643 224.69C108.898 224.69 112.36 228.152 112.36 232.405V274.739C112.36 275.938 111.387 276.911 110.188 276.911H95.5918C95.5603 276.914 95.5278 276.915 95.4952 276.915ZM83.2339 272.57L95.3985 272.571C95.43 272.57 95.4626 272.569 95.4941 272.569H108.015V232.407C108.015 230.549 106.501 229.036 104.642 229.036L91.5934 229.035C85.953 229.035 83.2523 229.034 81.8732 229.038C80.8784 229.042 79.8783 229.148 78.8999 229.352L64.2332 232.411C63.9834 232.463 63.7239 232.471 63.4687 232.433L57.9587 231.611C57.9054 231.603 57.8522 231.592 57.8001 231.582L40.121 227.583C40.0298 227.563 39.9353 227.543 39.8398 227.529C39.0101 227.392 38.6854 227.913 38.5584 228.374C38.4661 228.707 38.352 229.522 39.2784 229.889L64.2071 239.771C65.0802 240.117 66 240.292 66.9415 240.292H82.0361C82.6246 240.292 83.1872 240.531 83.5966 240.953C84.0049 241.376 84.2264 241.947 84.2068 242.534L83.2339 272.57Z" fill="#3762CC"/>
</svg>
