<svg width="324" height="324" viewBox="0 0 324 324" fill="none" xmlns="http://www.w3.org/2000/svg">
<path d="M280.913 225.027H216.371C205.157 225.027 196.066 234.118 196.066 245.333V272.919V278.189H301.217V272.919V245.333C301.217 234.118 292.127 225.027 280.913 225.027Z" fill="#6BDDDD"/>
<path d="M249.212 221.102C242.572 221.102 236.331 219.421 230.889 216.475V225.027L247.084 240.85C247.95 241.695 249.332 241.695 250.198 240.848L266.361 225.027C266.361 222.184 266.361 219.716 266.361 217.088C261.202 219.654 255.378 221.102 249.212 221.102Z" fill="#F9CFCF"/>
<path d="M276.251 225.027H220.993L245.222 248.699C247.127 250.56 250.169 250.558 252.071 248.695L276.251 225.027Z" fill="#E0EBFC"/>
<path d="M249.212 221.102C242.572 221.102 236.331 219.421 230.889 216.475V225.027L247.084 240.85C247.95 241.695 249.332 241.695 250.198 240.848L266.361 225.027C266.361 222.184 266.361 219.716 266.361 217.088C261.202 219.654 255.378 221.102 249.212 221.102Z" fill="#F9CFCF"/>
<path d="M196.066 259.22H210.559V261.751H196.066V259.22Z" fill="#E0EBFC"/>
<path d="M286.725 259.22H301.217V261.751H286.725V259.22Z" fill="#E0EBFC"/>
<path d="M196.066 268.819H210.559V278.189H196.066V268.819Z" fill="#F9CFCF"/>
<path d="M286.725 268.819H301.219V278.189H286.725V268.819Z" fill="#F9CFCF"/>
<path d="M271.946 251.27H265.694C264.956 251.27 264.359 251.868 264.359 252.605V264.14C264.359 264.632 264.63 265.085 265.065 265.318L271.317 268.661C271.513 268.766 271.73 268.819 271.947 268.819V251.27H271.946Z" fill="#E0EBFC"/>
<path d="M272.576 268.661L278.829 265.318C279.263 265.086 279.535 264.633 279.535 264.14V252.605C279.535 251.867 278.936 251.27 278.2 251.27H271.947V268.819C272.163 268.819 272.379 268.766 272.576 268.661Z" fill="#4671C6"/>
<path d="M286.725 280.721C285.328 280.721 284.194 279.587 284.194 278.189V248.974C284.194 247.577 285.328 246.443 286.725 246.443C288.122 246.443 289.256 247.577 289.256 248.974V278.189C289.256 279.588 288.122 280.721 286.725 280.721Z" fill="#3762CC"/>
<path d="M210.559 280.721C209.162 280.721 208.028 279.587 208.028 278.189V248.974C208.028 247.577 209.162 246.443 210.559 246.443C211.957 246.443 213.091 247.577 213.091 248.974V278.189C213.091 279.588 211.958 280.721 210.559 280.721Z" fill="#3762CC"/>
<path d="M210.559 271.35H196.066C194.668 271.35 193.534 270.216 193.534 268.819C193.534 267.421 194.668 266.287 196.066 266.287H210.559C211.957 266.287 213.091 267.421 213.091 268.819C213.091 270.216 211.958 271.35 210.559 271.35Z" fill="#3762CC"/>
<path d="M301.217 271.35H286.725C285.328 271.35 284.194 270.216 284.194 268.819C284.194 267.421 285.328 266.287 286.725 266.287H301.217C302.615 266.287 303.749 267.421 303.749 268.819C303.749 270.216 302.616 271.35 301.217 271.35Z" fill="#3762CC"/>
<path d="M273.278 122.139H225.145C212.153 122.139 201.622 132.67 201.622 145.662V164.24C201.622 187.814 220.731 206.923 244.305 206.923H254.119C277.692 206.923 296.802 187.814 296.802 164.24V145.662C296.802 132.67 286.269 122.139 273.278 122.139Z" fill="#4671C6"/>
<path d="M254.117 209.455H244.305C219.373 209.455 199.089 189.172 199.089 164.24V145.662C199.089 131.295 210.776 119.608 225.143 119.608H273.278C287.645 119.608 299.332 131.296 299.332 145.662V164.24C299.333 189.172 279.049 209.455 254.117 209.455ZM225.145 124.67C213.569 124.67 204.153 134.087 204.153 145.662V164.24C204.153 186.38 222.165 204.392 244.306 204.392H254.119C276.258 204.392 294.272 186.38 294.272 164.24V145.662C294.272 134.087 284.855 124.67 273.28 124.67H225.145Z" fill="#3762CC"/>
<path d="M287.512 168.72V165.134C287.512 144.171 270.364 127.179 249.212 127.179C228.059 127.179 210.911 144.172 210.911 165.134V168.72C204.26 168.585 198.984 173.883 198.984 180.288C198.984 187.126 204.954 192.536 211.923 191.799C215.875 208.591 231.065 221.102 249.212 221.102C267.359 221.102 282.548 208.59 286.501 191.799C293.46 192.534 299.439 187.137 299.439 180.288C299.438 173.88 294.158 168.586 287.512 168.72Z" fill="#F9CFCF"/>
<path d="M269.096 187.256C266.148 187.256 263.759 184.866 263.759 181.918V176.226C263.759 173.278 266.148 170.888 269.096 170.888C272.044 170.888 274.433 173.278 274.433 176.226V181.918C274.433 184.866 272.044 187.256 269.096 187.256Z" fill="#3762CC"/>
<path d="M229.319 187.256C226.371 187.256 223.981 184.866 223.981 181.918V176.226C223.981 173.278 226.371 170.888 229.319 170.888C232.266 170.888 234.656 173.278 234.656 176.226V181.918C234.656 184.866 232.266 187.256 229.319 187.256Z" fill="#3762CC"/>
<path d="M249.212 223.633C230.835 223.633 214.992 211.706 209.982 194.378C206.713 194.22 203.573 192.947 201.123 190.744C198.155 188.073 196.454 184.261 196.454 180.287C196.454 176.483 197.958 172.915 200.685 170.241C202.813 168.156 205.482 166.822 208.38 166.364V165.132C208.38 142.808 226.697 124.646 249.213 124.646C271.727 124.646 290.045 142.808 290.045 165.132V166.364C292.943 166.822 295.612 168.156 297.741 170.242C300.468 172.915 301.972 176.483 301.972 180.287C301.972 184.261 300.27 188.072 297.303 190.742C294.853 192.947 291.711 194.22 288.441 194.378C283.43 211.706 267.587 223.633 249.212 223.633ZM211.925 189.268C213.086 189.268 214.115 190.065 214.387 191.22C218.177 207.323 232.498 218.571 249.212 218.571C265.924 218.571 280.245 207.323 284.035 191.218C284.328 189.978 285.492 189.141 286.765 189.282C289.419 189.562 291.954 188.744 293.915 186.98C295.816 185.267 296.907 182.828 296.907 180.287C296.907 177.855 295.944 175.571 294.195 173.858C292.428 172.125 290.098 171.207 287.563 171.249C286.901 171.277 286.225 171.004 285.74 170.527C285.255 170.049 284.98 169.399 284.98 168.718V165.132C284.98 145.6 268.934 129.709 249.21 129.709C229.487 129.709 213.44 145.6 213.44 165.132V168.718C213.44 169.399 213.165 170.049 212.679 170.527C212.192 171.001 211.49 171.281 210.858 171.249C208.352 171.187 205.993 172.124 204.226 173.856C202.477 175.57 201.514 177.853 201.514 180.287C201.514 182.828 202.605 185.269 204.507 186.981C206.468 188.744 209.004 189.56 211.654 189.282C211.747 189.272 211.837 189.268 211.925 189.268Z" fill="#3762CC"/>
<path d="M265.643 164.005H197.754V143.046C197.754 124.507 212.783 109.478 231.322 109.478H265.643C280.7 109.478 292.907 121.685 292.907 136.742C292.907 151.798 280.7 164.005 265.643 164.005Z" fill="#4671C6"/>
<path d="M265.643 166.535H197.754C196.357 166.535 195.223 165.401 195.223 164.003V143.045C195.223 123.139 211.418 106.945 231.322 106.945H265.642C282.071 106.945 295.437 120.312 295.437 136.741C295.437 153.17 282.072 166.535 265.643 166.535ZM200.285 161.472H265.643C279.28 161.472 290.376 150.378 290.376 136.739C290.376 123.101 279.28 112.008 265.643 112.008H231.323C214.21 112.008 200.286 125.931 200.286 143.045V161.472H200.285Z" fill="#3762CC"/>
<path d="M248.65 205.367C245.639 205.367 242.823 204.269 240.926 202.357C239.44 200.86 238.622 198.959 238.622 197.003C238.622 195.606 239.756 194.472 241.153 194.472C242.551 194.472 243.685 195.606 243.685 197.003C243.685 197.786 244.138 198.407 244.519 198.79C245.459 199.738 247.003 200.304 248.65 200.304C250.305 200.304 251.8 199.752 252.754 198.792C253.136 198.408 253.59 197.787 253.59 197.003C253.59 195.606 254.724 194.472 256.121 194.472C257.518 194.472 258.652 195.606 258.652 197.003C258.652 198.959 257.834 200.86 256.347 202.357C254.451 204.269 251.644 205.367 248.65 205.367Z" fill="#3762CC"/>
<path d="M301.217 280.721H196.066C194.668 280.721 193.534 279.587 193.534 278.189V245.333C193.534 232.741 203.78 222.497 216.371 222.497H228.358V216.476C228.358 215.584 228.828 214.759 229.595 214.302C230.359 213.845 231.308 213.826 232.095 214.25C237.319 217.077 243.238 218.572 249.212 218.572C254.842 218.572 260.234 217.31 265.235 214.822C266.019 214.431 266.948 214.475 267.694 214.936C268.439 215.397 268.892 216.212 268.892 217.088V222.496H280.913C293.505 222.496 303.749 232.74 303.749 245.331V278.188C303.749 279.588 302.616 280.721 301.217 280.721ZM198.597 275.658H298.686V245.333C298.686 235.532 290.713 227.559 280.913 227.559H266.361C264.964 227.559 263.83 226.425 263.83 225.028V220.96C259.181 222.736 254.281 223.635 249.21 223.635C243.786 223.635 238.399 222.554 233.419 220.483V225.028C233.419 226.425 232.285 227.559 230.888 227.559H216.371C206.57 227.559 198.597 235.533 198.597 245.333V275.658Z" fill="#3762CC"/>
<path d="M248.645 252.607C246.765 252.607 244.886 251.907 243.453 250.509L219.224 226.837C218.487 226.118 218.26 225.024 218.648 224.071C219.038 223.118 219.963 222.494 220.993 222.494H230.888C231.549 222.494 232.184 222.754 232.656 223.214L248.638 238.828L264.589 223.217C265.062 222.754 265.698 222.494 266.36 222.494H276.248C277.277 222.494 278.203 223.117 278.592 224.07C278.982 225.022 278.754 226.115 278.02 226.835L253.841 250.504C252.41 251.906 250.527 252.607 248.645 252.607ZM227.206 227.558L246.991 246.888C247.904 247.78 249.389 247.779 250.299 246.887L270.045 227.559H267.392L251.967 242.658C250.133 244.454 247.149 244.454 245.315 242.662L229.856 227.559H227.206V227.558Z" fill="#3762CC"/>
<path d="M107.629 225.027H43.0869C31.8722 225.027 22.7812 234.118 22.7812 245.333V272.919V278.189H127.933V272.919V245.333C127.934 234.118 118.843 225.027 107.629 225.027Z" fill="#6BDDDD"/>
<path d="M75.9274 221.102C69.2879 221.102 63.0471 219.421 57.6049 216.475V225.027L73.7999 240.85C74.6655 241.695 76.0476 241.695 76.9133 240.848L93.0766 225.027C93.0766 222.184 93.0766 219.716 93.0766 217.088C87.9179 219.654 82.0948 221.102 75.9274 221.102Z" fill="#F9CFCF"/>
<path d="M102.966 225.027H47.709L71.9381 248.699C73.8429 250.56 76.8842 250.558 78.7864 248.695L102.966 225.027Z" fill="#E0EBFC"/>
<path d="M75.9274 221.102C69.2879 221.102 63.0471 219.421 57.6049 216.475V225.027L73.7999 240.85C74.6655 241.695 76.0476 241.695 76.9133 240.848L93.0766 225.027C93.0766 222.184 93.0766 219.716 93.0766 217.088C87.9179 219.654 82.0948 221.102 75.9274 221.102Z" fill="#F9CFCF"/>
<path d="M22.7825 259.22H37.2752V261.751H22.7825V259.22Z" fill="#E0EBFC"/>
<path d="M113.441 259.22H127.934V261.751H113.441V259.22Z" fill="#E0EBFC"/>
<path d="M22.7825 268.819H37.2765V278.189H22.7825V268.819Z" fill="#F9CFCF"/>
<path d="M113.441 268.819H127.934V278.189H113.441V268.819Z" fill="#F9CFCF"/>
<path d="M98.6618 251.27H92.4096C91.6717 251.27 91.0744 251.868 91.0744 252.605V264.14C91.0744 264.632 91.3452 265.085 91.7806 265.318L98.0328 268.661C98.229 268.766 98.4454 268.819 98.6631 268.819V251.27H98.6618Z" fill="#E0EBFC"/>
<path d="M99.2921 268.661L105.544 265.318C105.978 265.086 106.25 264.633 106.25 264.14V252.605C106.25 251.867 105.652 251.27 104.915 251.27H98.6631V268.819C98.8782 268.819 99.0946 268.766 99.2921 268.661Z" fill="#4671C6"/>
<path d="M113.441 280.721C112.043 280.721 110.909 279.587 110.909 278.189V248.974C110.909 247.577 112.043 246.443 113.441 246.443C114.838 246.443 115.972 247.577 115.972 248.974V278.189C115.972 279.588 114.838 280.721 113.441 280.721Z" fill="#3762CC"/>
<path d="M37.2752 280.721C35.8779 280.721 34.7439 279.587 34.7439 278.189V248.974C34.7439 247.577 35.8779 246.443 37.2752 246.443C38.6724 246.443 39.8064 247.577 39.8064 248.974V278.189C39.8064 279.588 38.6737 280.721 37.2752 280.721Z" fill="#3762CC"/>
<path d="M37.2752 271.35H22.7825C21.3853 271.35 20.2513 270.216 20.2513 268.819C20.2513 267.421 21.3853 266.287 22.7825 266.287H37.2752C38.6724 266.287 39.8064 267.421 39.8064 268.819C39.8064 270.216 38.6737 271.35 37.2752 271.35Z" fill="#3762CC"/>
<path d="M127.934 271.35H113.441C112.043 271.35 110.909 270.216 110.909 268.819C110.909 267.421 112.043 266.287 113.441 266.287H127.934C129.332 266.287 130.466 267.421 130.466 268.819C130.466 270.216 129.332 271.35 127.934 271.35Z" fill="#3762CC"/>
<path d="M99.9945 122.139H51.8603C38.8686 122.139 28.3373 132.67 28.3373 145.662V164.24C28.3373 187.814 47.447 206.923 71.0205 206.923H80.8342C104.408 206.923 123.517 187.814 123.517 164.24V145.662C123.517 132.67 112.986 122.139 99.9945 122.139Z" fill="#4671C6"/>
<path d="M80.8342 209.455H71.0205C46.089 209.455 25.8048 189.172 25.8048 164.24V145.662C25.8048 131.295 37.4929 119.608 51.8602 119.608H99.9932C114.361 119.608 126.047 131.296 126.047 145.662V164.24C126.049 189.172 105.764 209.455 80.8342 209.455ZM51.8615 124.67C40.2861 124.67 30.8686 134.087 30.8686 145.662V164.24C30.8686 186.38 48.881 204.392 71.0218 204.392H80.8355C102.975 204.392 120.987 186.38 120.987 164.24V145.662C120.987 134.087 111.571 124.67 99.9958 124.67H51.8615Z" fill="#3762CC"/>
<path d="M114.228 168.72V165.134C114.228 144.171 97.0798 127.179 75.9274 127.179C54.775 127.179 37.627 144.172 37.627 165.134V168.72C30.9762 168.585 25.6998 173.883 25.6998 180.288C25.6998 187.126 31.6697 192.536 38.6383 191.799C42.5908 208.591 57.7808 221.102 75.9274 221.102C94.0752 221.102 109.264 208.59 113.216 191.799C120.176 192.534 126.155 187.137 126.155 180.288C126.155 173.88 120.874 168.586 114.228 168.72Z" fill="#F9CFCF"/>
<path d="M95.8116 187.256C92.864 187.256 90.4745 184.866 90.4745 181.918V176.226C90.4745 173.278 92.864 170.888 95.8116 170.888C98.7592 170.888 101.149 173.278 101.149 176.226V181.918C101.149 184.866 98.7592 187.256 95.8116 187.256Z" fill="#3762CC"/>
<path d="M56.0343 187.256C53.0866 187.256 50.6971 184.866 50.6971 181.918V176.226C50.6971 173.278 53.0866 170.888 56.0343 170.888C58.9819 170.888 61.3714 173.278 61.3714 176.226V181.918C61.3714 184.866 58.9819 187.256 56.0343 187.256Z" fill="#3762CC"/>
<path d="M75.9274 223.633C57.5505 223.633 41.7074 211.706 36.6981 194.378C33.429 194.22 30.2889 192.947 27.8387 190.744C24.8708 188.073 23.1698 184.261 23.1698 180.287C23.1698 176.483 24.6734 172.915 27.4008 170.242C29.5296 168.157 32.1988 166.823 35.097 166.365V165.134C35.097 142.809 53.4144 124.648 75.9286 124.648C98.4428 124.648 116.76 142.809 116.76 165.134V166.365C119.66 166.823 122.328 168.157 124.456 170.243C127.184 172.916 128.687 176.484 128.687 180.288C128.687 184.262 126.985 188.073 124.019 190.744C121.568 192.948 118.427 194.222 115.158 194.38C110.147 211.706 94.3042 223.633 75.9274 223.633ZM38.6408 189.268C39.8014 189.268 40.8303 190.065 41.1024 191.22C44.893 207.323 59.2135 218.571 75.9274 218.571C92.6412 218.571 106.962 207.323 110.751 191.22C111.042 189.978 112.212 189.141 113.481 189.282C116.132 189.562 118.67 188.744 120.631 186.98C122.531 185.267 123.622 182.828 123.622 180.287C123.622 177.854 122.659 175.571 120.91 173.858C119.142 172.125 116.779 171.207 114.278 171.249C113.581 171.277 112.941 171.004 112.456 170.527C111.971 170.049 111.695 169.399 111.695 168.718V165.132C111.695 145.6 95.6496 129.709 75.9261 129.709C56.2026 129.709 40.1583 145.601 40.1583 165.135V168.72C40.1583 169.401 39.8836 170.052 39.3976 170.529C38.9116 171.004 38.2193 171.283 37.5764 171.252C35.0831 171.19 32.7113 172.126 30.9433 173.859C29.1942 175.573 28.231 177.856 28.231 180.288C28.231 182.83 29.322 185.27 31.2242 186.982C33.1847 188.745 35.7185 189.562 38.3712 189.283C38.4623 189.272 38.5522 189.268 38.6408 189.268Z" fill="#3762CC"/>
<path d="M92.359 164.005H24.4696V143.046C24.4696 124.507 39.4989 109.478 58.0378 109.478H92.359C107.416 109.478 119.623 121.685 119.623 136.742C119.623 151.798 107.416 164.005 92.359 164.005Z" fill="#4671C6"/>
<path d="M92.3602 166.535H24.4696C23.0723 166.535 21.9383 165.401 21.9383 164.003V143.045C21.9383 123.139 38.1333 106.945 58.0378 106.945H92.359C108.787 106.945 122.153 120.312 122.153 136.741C122.153 153.17 108.788 166.535 92.3602 166.535ZM27.0008 161.472H92.3602C105.997 161.472 117.092 150.378 117.092 136.739C117.092 123.101 105.997 112.008 92.3602 112.008H58.0378C40.924 112.008 27.0008 125.931 27.0008 143.045V161.472Z" fill="#3762CC"/>
<path d="M75.3667 205.367C72.3545 205.367 69.5398 204.269 67.6413 202.357C66.1567 200.858 65.3391 198.958 65.3391 197.003C65.3391 195.606 66.4731 194.472 67.8704 194.472C69.2677 194.472 70.4017 195.606 70.4017 197.003C70.4017 197.786 70.8547 198.408 71.2357 198.792C72.1748 199.738 73.7201 200.304 75.3667 200.304C77.0221 200.304 78.5168 199.752 79.4699 198.792C79.8521 198.407 80.3052 197.786 80.3052 197.003C80.3052 195.606 81.4392 194.472 82.8364 194.472C84.2337 194.472 85.3677 195.606 85.3677 197.003C85.3677 198.959 84.5501 200.86 83.063 202.357C81.1683 204.269 78.3624 205.367 75.3667 205.367Z" fill="#3762CC"/>
<path d="M127.934 280.721H22.7825C21.3853 280.721 20.2513 279.587 20.2513 278.189V245.333C20.2513 232.741 30.4952 222.497 43.0869 222.497H55.0749V216.476C55.0749 215.584 55.5445 214.759 56.3115 214.302C57.0759 213.845 58.0276 213.826 58.8123 214.25C64.0343 217.077 69.9536 218.572 75.9286 218.572C81.5581 218.572 86.9497 217.31 91.9502 214.822C92.7349 214.431 93.6638 214.475 94.4093 214.936C95.1547 215.397 95.6078 216.212 95.6078 217.088V222.496H107.629C120.22 222.496 130.466 232.74 130.466 245.331V278.188C130.466 279.588 129.332 280.721 127.934 280.721ZM25.3138 275.658H125.403V245.333C125.403 235.532 117.43 227.559 107.629 227.559H93.0766C91.6793 227.559 90.5453 226.425 90.5453 225.028V220.96C85.898 222.736 80.9975 223.635 75.9274 223.635C70.5016 223.635 65.1151 222.554 60.1362 220.483V225.028C60.1362 226.425 59.0022 227.559 57.6049 227.559H43.0869C33.2872 227.559 25.3138 235.533 25.3138 245.333V275.658Z" fill="#3762CC"/>
<path d="M75.3604 252.607C73.4809 252.607 71.6015 251.909 70.1688 250.51L45.9409 226.838C45.2043 226.119 44.9765 225.026 45.3651 224.073C45.7549 223.12 46.68 222.496 47.7103 222.496H57.6062C58.2668 222.496 58.9022 222.755 59.3743 223.216L75.3566 238.83L91.306 223.217C91.7793 222.754 92.4147 222.494 93.0766 222.494H102.966C103.995 222.494 104.922 223.117 105.31 224.07C105.7 225.022 105.472 226.115 104.738 226.835L80.5596 250.504C79.1269 251.906 77.2424 252.607 75.3604 252.607ZM53.9219 227.558L73.7062 246.888C74.6212 247.782 76.1058 247.779 77.0171 246.885L96.7621 227.558H94.1093L78.6839 242.657C76.85 244.45 73.8657 244.45 72.0318 242.662L56.5734 227.558H53.9219Z" fill="#3762CC"/>
<path d="M201.384 213.419H122.749C109.087 213.419 98.01 224.494 98.01 238.158V271.769V278.189H226.122V271.769V238.158C226.123 224.494 215.046 213.419 201.384 213.419Z" fill="#6BDDDD"/>
<path d="M130.087 213.419L158.277 240.96C160.386 243.02 163.755 243.019 165.863 240.956L193.994 213.419H130.087Z" fill="#E0EBFC"/>
<path d="M98.01 255.907H115.668V258.438H98.01V255.907Z" fill="#E0EBFC"/>
<path d="M208.465 255.907H226.123V258.438H208.465V255.907Z" fill="#E0EBFC"/>
<path d="M98.01 266.772H115.668V278.189H98.01V266.772Z" fill="#F9CFCF"/>
<path d="M208.465 266.772H226.123V278.189H208.465V266.772Z" fill="#F9CFCF"/>
<path d="M187.928 245.392H180.31C179.411 245.392 178.682 246.121 178.682 247.02V261.074C178.682 261.674 179.013 262.226 179.543 262.51L187.161 266.581C187.4 266.709 187.664 266.773 187.928 266.773V245.392Z" fill="#E0EBFC"/>
<path d="M188.696 266.58L196.314 262.508C196.843 262.225 197.174 261.673 197.174 261.073V247.018C197.174 246.12 196.445 245.391 195.547 245.391H187.929V266.771C188.192 266.772 188.455 266.708 188.696 266.58Z" fill="#4671C6"/>
<path d="M208.465 280.721C207.068 280.721 205.934 279.587 205.934 278.189V242.594C205.934 241.196 207.068 240.062 208.465 240.062C209.862 240.062 210.996 241.196 210.996 242.594V278.189C210.996 279.588 209.862 280.721 208.465 280.721Z" fill="#3762CC"/>
<path d="M115.669 280.721C114.272 280.721 113.138 279.587 113.138 278.189V242.594C113.138 241.196 114.272 240.062 115.669 240.062C117.067 240.062 118.201 241.196 118.201 242.594V278.189C118.201 279.588 117.067 280.721 115.669 280.721Z" fill="#3762CC"/>
<path d="M115.669 269.303H98.01C96.6128 269.303 95.4788 268.169 95.4788 266.772C95.4788 265.375 96.6128 264.241 98.01 264.241H115.668C117.065 264.241 118.199 265.375 118.199 266.772C118.199 268.169 117.067 269.303 115.669 269.303Z" fill="#3762CC"/>
<path d="M226.123 269.303H208.465C207.068 269.303 205.934 268.169 205.934 266.772C205.934 265.375 207.068 264.241 208.465 264.241H226.123C227.52 264.241 228.654 265.375 228.654 266.772C228.654 268.169 227.521 269.303 226.123 269.303Z" fill="#3762CC"/>
<path d="M162.067 208.562C154.256 208.562 146.901 206.647 140.438 203.277V213.419L160.17 232.697C161.224 233.727 162.909 233.726 163.963 232.695L183.655 213.419V203.3C177.201 206.656 169.861 208.562 162.067 208.562Z" fill="#F9CFCF"/>
<path d="M226.123 280.721H98.01C96.6128 280.721 95.4788 279.587 95.4788 278.189V238.158C95.4788 223.121 107.712 210.887 122.749 210.887H137.906V203.277C137.906 202.392 138.368 201.571 139.125 201.113C139.884 200.655 140.825 200.624 141.608 201.033C147.967 204.35 154.852 206.031 162.067 206.031C169.266 206.031 176.136 204.357 182.487 201.053C183.271 200.645 184.212 200.676 184.969 201.136C185.724 201.594 186.186 202.415 186.186 203.299V210.886H201.385C216.422 210.886 228.655 223.12 228.655 238.156V278.188C228.654 279.588 227.521 280.721 226.123 280.721ZM100.541 275.658H223.592V238.158C223.592 225.913 213.63 215.95 201.384 215.95H183.654C182.256 215.95 181.122 214.816 181.122 213.419V207.275C169.099 212.295 154.985 212.287 142.969 207.257V213.419C142.969 214.816 141.835 215.95 140.438 215.95H122.749C110.503 215.95 100.541 225.913 100.541 238.158V275.658Z" fill="#3762CC"/>
<path d="M162.068 245.017C160.053 245.017 158.041 244.268 156.507 242.771L128.319 215.23C127.583 214.511 127.355 213.417 127.743 212.464C128.133 211.511 129.058 210.887 130.089 210.887H140.439C141.099 210.887 141.735 211.147 142.207 211.607L161.939 230.885C162.011 230.955 162.123 230.954 162.191 230.885L181.884 211.609C182.358 211.145 182.993 210.886 183.655 210.886H193.995C195.024 210.886 195.95 211.509 196.339 212.462C196.729 213.413 196.501 214.507 195.767 215.227L167.635 242.765C166.099 244.266 164.083 245.017 162.068 245.017ZM136.3 215.95L160.045 239.149C161.162 240.238 162.975 240.238 164.092 239.147L187.79 215.95H184.688L165.732 234.504C163.711 236.482 160.423 236.485 158.399 234.506L139.406 215.95H136.3Z" fill="#3762CC"/>
<path d="M208.617 144.896V140.538C208.617 115.061 187.776 94.4068 162.066 94.4068C136.357 94.4068 115.515 115.061 115.515 140.538V144.896C107.431 144.732 101.018 151.171 101.018 158.956C101.018 167.268 108.274 173.842 116.744 172.946C121.548 193.356 140.01 208.562 162.065 208.562C184.122 208.562 202.582 193.355 207.385 172.946C215.843 173.841 223.111 167.279 223.111 158.956C223.113 151.169 216.695 144.733 208.617 144.896Z" fill="#F9CFCF"/>
<path d="M162.076 188.912C158.554 188.912 155.267 187.635 153.058 185.409C151.351 183.688 150.412 181.51 150.412 179.275C150.412 177.877 151.546 176.743 152.943 176.743C154.34 176.743 155.474 177.877 155.474 179.275C155.474 180.178 155.882 181.067 156.653 181.844C157.898 183.099 159.927 183.849 162.076 183.849C164.239 183.849 166.206 183.117 167.47 181.842C168.24 181.065 168.648 180.178 168.648 179.275C168.648 177.877 169.782 176.743 171.18 176.743C172.577 176.743 173.711 177.877 173.711 179.275C173.711 181.51 172.772 183.688 171.064 185.408C168.853 187.635 165.578 188.912 162.076 188.912Z" fill="#3762CC"/>
<path d="M186.234 169.544C182.623 169.544 179.697 166.617 179.697 163.007V156.034C179.697 152.423 182.625 149.497 186.234 149.497C189.845 149.497 192.771 152.424 192.771 156.034V163.007C192.771 166.617 189.845 169.544 186.234 169.544Z" fill="#3762CC"/>
<path d="M137.887 169.544C134.276 169.544 131.35 166.617 131.35 163.007V156.034C131.35 152.423 134.278 149.497 137.887 149.497C141.498 149.497 144.424 152.424 144.424 156.034V163.007C144.424 166.617 141.498 169.544 137.887 169.544Z" fill="#3762CC"/>
<path d="M162.067 211.094C139.844 211.094 120.701 196.583 114.804 175.551C110.816 175.45 106.966 173.94 103.984 171.258C100.492 168.116 98.4884 163.631 98.4884 158.955C98.4884 154.478 100.256 150.28 103.467 147.135C106.082 144.572 109.396 142.974 112.985 142.506V140.538C112.985 113.705 135.003 91.8755 162.067 91.8755C189.131 91.8755 211.148 113.705 211.148 140.538V142.506C214.737 142.974 218.049 144.572 220.667 147.136C223.876 150.283 225.646 154.48 225.646 158.955C225.646 163.631 223.644 168.115 220.152 171.257C217.171 173.939 213.319 175.45 209.329 175.551C203.43 196.583 184.289 211.094 162.067 211.094ZM116.748 170.415C117.908 170.415 118.937 171.212 119.209 172.367C123.874 192.188 141.497 206.031 162.066 206.031C182.635 206.031 200.257 192.188 204.921 172.367C205.213 171.125 206.396 170.285 207.651 170.429C211.029 170.785 214.263 169.744 216.762 167.494C219.189 165.311 220.581 162.199 220.581 158.955C220.581 155.85 219.352 152.938 217.122 150.752C214.927 148.601 212.021 147.425 208.918 147.425C208.834 147.425 208.751 147.425 208.669 147.428C207.997 147.458 207.331 147.181 206.846 146.705C206.36 146.229 206.086 145.577 206.086 144.896V140.538C206.086 116.497 186.338 96.938 162.067 96.938C137.794 96.938 118.047 116.497 118.047 140.538V144.896C118.047 145.577 117.773 146.228 117.287 146.704C116.801 147.18 116.108 147.461 115.465 147.426C112.279 147.371 109.266 148.541 107.011 150.75C104.78 152.936 103.552 155.849 103.552 158.954C103.552 162.197 104.944 165.31 107.372 167.494C109.873 169.743 113.105 170.785 116.481 170.428C116.569 170.419 116.659 170.415 116.748 170.415Z" fill="#3762CC"/>
<path d="M162.067 211.094C139.844 211.094 120.701 196.583 114.804 175.551C110.816 175.45 106.966 173.94 103.984 171.258C100.492 168.115 98.4884 163.631 98.4884 158.955C98.4884 154.478 100.256 150.28 103.467 147.135C106.082 144.572 109.396 142.974 112.985 142.506V140.538C112.985 137.514 113.278 134.445 113.858 131.412C117.384 116.563 130.418 106.268 145.576 106.268H182.334C191.437 106.268 200.108 110.652 205.527 117.995C205.607 118.102 205.677 118.216 205.737 118.333C209.328 125.261 211.148 132.731 211.148 140.538V142.506C214.737 142.974 218.049 144.572 220.667 147.136C223.876 150.283 225.646 154.48 225.646 158.955C225.646 163.631 223.644 168.115 220.152 171.257C217.171 173.939 213.319 175.45 209.329 175.551C203.43 196.583 184.289 211.094 162.067 211.094ZM116.748 170.415C117.908 170.415 118.937 171.212 119.209 172.367C123.874 192.188 141.497 206.031 162.066 206.031C182.635 206.031 200.257 192.188 204.921 172.367C205.213 171.125 206.396 170.285 207.651 170.429C211.029 170.785 214.263 169.744 216.762 167.494C219.189 165.311 220.581 162.199 220.581 158.955C220.581 155.85 219.352 152.938 217.122 150.752C214.927 148.601 212.021 147.425 208.918 147.425C208.834 147.425 208.751 147.425 208.669 147.428C207.997 147.458 207.331 147.181 206.846 146.705C206.36 146.229 206.086 145.577 206.086 144.896V140.538C206.086 133.618 204.487 126.993 201.336 120.843C196.859 114.883 189.77 111.331 182.332 111.331H145.575C132.773 111.331 121.765 120.024 118.808 132.473C118.309 135.083 118.046 137.833 118.046 140.538V144.896C118.046 145.577 117.771 146.228 117.285 146.705C116.799 147.18 116.107 147.46 115.464 147.428C112.277 147.372 109.265 148.543 107.01 150.751C104.779 152.937 103.551 155.85 103.551 158.955C103.551 162.199 104.943 165.311 107.371 167.495C109.871 169.744 113.104 170.786 116.479 170.429C116.569 170.419 116.659 170.415 116.748 170.415Z" fill="#3762CC"/>
<path d="M106.845 135.359C106.845 139.236 107.657 142.925 109.11 146.268C111.037 145.358 113.204 144.85 115.516 144.896V140.538C115.516 137.58 115.808 134.69 116.345 131.888C119.491 118.651 131.376 108.799 145.575 108.799H182.332C191.012 108.799 198.703 113.013 203.49 119.499C206.76 125.809 208.617 132.956 208.617 140.538V144.896C210.914 144.85 213.069 145.352 214.988 146.252C216.437 142.913 217.246 139.23 217.246 135.359V121.796C217.246 113.208 213.289 105.546 207.103 100.524C205.024 84.745 191.531 72.5634 175.184 72.5634H172.982C152.545 72.5634 132.883 79.5002 116.311 91.4617C111.674 94.8092 106.396 96.9304 100.761 97.4709C99.1364 97.6265 97.8986 98.9921 97.8986 100.625V103.667C97.8986 112.244 101.313 120.014 106.845 125.722V135.359Z" fill="#4671C6"/>
<path d="M109.11 148.8C108.808 148.8 108.506 148.746 108.219 148.638C107.577 148.396 107.062 147.906 106.788 147.277C105.147 143.5 104.314 139.491 104.314 135.359V126.724C98.5378 120.398 95.3686 112.25 95.3686 103.666V100.624C95.3686 97.6708 97.5835 95.232 100.521 94.951C105.597 94.4637 110.411 92.5994 114.83 89.4088C132.392 76.7323 152.501 70.0308 172.983 70.0308H175.184C192.21 70.0308 206.775 82.5023 209.469 99.2022C216.035 104.899 219.778 113.076 219.778 121.795V135.359C219.778 139.483 218.949 143.488 217.313 147.259C217.041 147.887 216.526 148.378 215.885 148.62C215.246 148.862 214.536 148.834 213.916 148.544C212.255 147.766 210.508 147.388 208.669 147.426C208.047 147.457 207.332 147.18 206.847 146.704C206.36 146.228 206.087 145.576 206.087 144.896V140.538C206.087 133.618 204.488 126.993 201.337 120.843C196.86 114.883 189.772 111.331 182.334 111.331H145.576C132.774 111.331 121.766 120.024 118.809 132.473C118.311 135.083 118.047 137.833 118.047 140.538V144.896C118.047 145.577 117.773 146.228 117.287 146.705C116.801 147.181 116.157 147.461 115.464 147.428C113.64 147.39 111.856 147.771 110.19 148.558C109.849 148.719 109.479 148.8 109.11 148.8ZM172.983 75.0933C153.571 75.0933 134.487 81.4632 117.794 93.5132C112.637 97.2367 106.988 99.4161 101.004 99.9894C100.677 100.021 100.431 100.293 100.431 100.624V103.666C100.431 111.275 103.355 118.483 108.664 123.959C109.121 124.432 109.377 125.064 109.377 125.721V135.359C109.377 137.983 109.78 140.55 110.58 143.013C111.369 142.785 112.171 142.617 112.984 142.509V140.538C112.984 137.514 113.277 134.445 113.858 131.412C117.383 116.563 130.416 106.268 145.575 106.268H182.332C191.436 106.268 200.107 110.652 205.526 117.995C205.606 118.102 205.675 118.216 205.736 118.333C209.327 125.261 211.147 132.731 211.147 140.538V142.509C211.947 142.616 212.736 142.78 213.513 143.003C214.311 140.541 214.713 137.98 214.713 135.357V121.795C214.713 114.275 211.358 107.238 205.507 102.488C205.006 102.08 204.678 101.496 204.593 100.853C202.657 86.1675 190.012 75.0933 175.183 75.0933H172.983Z" fill="#3762CC"/>
<path d="M207.814 42.3984C207.814 24.5746 193.365 10.125 175.541 10.125H157C139.176 10.125 124.726 24.5746 124.726 42.3984C124.726 60.0235 138.858 74.3403 156.407 74.6567L164.081 87.8749C165.056 89.5556 167.483 89.5556 168.458 87.8749L176.132 74.6567C193.684 74.3403 207.814 60.0235 207.814 42.3984Z" fill="#F9A7A7"/>
<path d="M148.581 60.2792V36.2804C144.115 39.709 141.108 41.4226 139.562 41.4226C138.824 41.4226 138.168 41.129 137.597 40.5392C137.027 39.9507 136.741 39.2698 136.741 38.4952C136.741 37.5992 137.022 36.9398 137.585 36.5171C138.148 36.0956 139.14 35.5501 140.565 34.8819C142.693 33.8795 144.394 32.8252 145.668 31.7178C146.943 30.6104 148.073 29.3714 149.058 27.9994C150.042 26.6275 150.684 25.7846 150.983 25.4682C151.281 25.1518 151.845 24.9936 152.671 24.9936C153.603 24.9936 154.351 25.3543 154.912 26.0744C155.476 26.7958 155.757 27.7881 155.757 29.055V59.2502C155.757 62.7839 154.552 64.5507 152.143 64.5507C151.071 64.5507 150.209 64.19 149.559 63.4698C148.906 62.7484 148.581 61.6853 148.581 60.2792Z" fill="#FFEA92"/>
<path d="M176.088 44.6069C176.088 45.9219 175.769 47.0471 175.127 47.9836C174.489 48.9202 173.541 49.6302 172.293 50.1124C171.042 50.5946 169.523 50.8363 167.728 50.8363C166.02 50.8363 164.555 50.5744 163.331 50.0517C162.111 49.5277 161.21 48.8734 160.628 48.0887C160.046 47.304 159.755 46.5155 159.755 45.7245C159.755 45.2005 159.943 44.7538 160.314 44.3804C160.688 44.0083 161.161 43.8223 161.727 43.8223C162.227 43.8223 162.613 43.9438 162.88 44.188C163.147 44.4323 163.404 44.7753 163.647 45.217C164.135 46.0662 164.721 46.7003 165.402 47.1192C166.083 47.5381 167.008 47.747 168.185 47.747C169.138 47.747 169.92 47.5343 170.53 47.1103C171.14 46.6864 171.448 46.2004 171.448 45.6536C171.448 44.8158 171.129 44.2057 170.495 43.821C169.861 43.4375 168.818 43.0705 167.362 42.7212C165.725 42.3136 164.387 41.8871 163.359 41.4391C162.328 40.9911 161.505 40.4013 160.891 39.6685C160.274 38.9357 159.966 38.0346 159.966 36.9638C159.966 36.0096 160.25 35.1084 160.82 34.2592C161.391 33.41 162.229 32.7328 163.339 32.2266C164.453 31.7203 165.791 31.4672 167.361 31.4672C168.596 31.4672 169.703 31.5951 170.687 31.8507C171.671 32.1064 172.489 32.4493 173.148 32.8797C173.804 33.31 174.304 33.7871 174.647 34.3098C174.99 34.8325 175.162 35.3451 175.162 35.845C175.162 36.3918 174.982 36.8398 174.612 37.1891C174.246 37.5384 173.726 37.7131 173.054 37.7131C172.565 37.7131 172.149 37.5739 171.806 37.2942C171.459 37.0145 171.069 36.5968 170.625 36.0374C170.267 35.5716 169.842 35.1995 169.355 34.9211C168.866 34.6414 168.202 34.5022 167.362 34.5022C166.504 34.5022 165.788 34.6857 165.217 35.0515C164.646 35.4185 164.363 35.8741 164.363 36.4209C164.363 36.9208 164.572 37.3309 164.988 37.6511C165.41 37.9713 165.972 38.2358 166.68 38.4446C167.393 38.6534 168.369 38.9104 169.613 39.2128C171.092 39.5736 172.297 40.0039 173.234 40.5038C174.17 41.0037 174.879 41.5948 175.362 42.2744C175.847 42.9578 176.088 43.7337 176.088 44.6069Z" fill="#FFEA92"/>
<path d="M180.381 31.8862H180.905V29.0246C180.905 28.2563 180.925 27.6552 180.964 27.2185C181.003 26.7819 181.117 26.4073 181.307 26.0934C181.492 25.7681 181.76 25.5036 182.11 25.2998C182.456 25.0961 182.846 24.9948 183.279 24.9948C183.881 24.9948 184.428 25.2214 184.917 25.6757C185.243 25.9782 185.452 26.3478 185.538 26.7832C185.624 27.2198 185.668 27.8387 185.668 28.6411V31.8862H187.412C188.09 31.8862 188.601 32.0456 188.959 32.3658C189.313 32.686 189.491 33.0961 189.491 33.596C189.491 34.2364 189.239 34.6832 188.731 34.9401C188.224 35.1958 187.5 35.3236 186.558 35.3236H185.667V44.083C185.667 44.8272 185.695 45.4005 185.746 45.8017C185.796 46.2029 185.938 46.5294 186.163 46.7788C186.391 47.0294 186.762 47.1534 187.273 47.1534C187.553 47.1534 187.93 47.104 188.407 47.0053C188.883 46.9066 189.258 46.8572 189.525 46.8572C189.907 46.8572 190.253 47.0116 190.564 47.3192C190.871 47.628 191.025 48.009 191.025 48.462C191.025 49.2303 190.607 49.8175 189.769 50.2251C188.931 50.6313 187.726 50.8351 186.156 50.8351C184.667 50.8351 183.538 50.5845 182.771 50.0846C182.004 49.5847 181.501 48.8924 181.26 48.0077C181.024 47.1243 180.906 45.9435 180.906 44.4652V35.3236H180.276C179.591 35.3236 179.067 35.1603 178.705 34.8351C178.343 34.5098 178.166 34.0972 178.166 33.596C178.166 33.0961 178.354 32.686 178.733 32.3658C179.11 32.0456 179.657 31.8862 180.381 31.8862Z" fill="#FFEA92"/>
<path d="M166.27 91.6667C164.446 91.6667 162.81 90.7251 161.892 89.1468L154.918 77.131C136.746 76.0425 122.196 60.7563 122.196 42.3984C122.196 23.2065 137.81 7.59375 157.001 7.59375H175.541C194.732 7.59375 210.346 23.2065 210.346 42.3984C210.346 60.7563 195.796 76.0425 177.624 77.131L170.648 89.1456C169.732 90.7251 168.095 91.6667 166.27 91.6667ZM157.001 12.6562C140.601 12.6562 127.259 25.9985 127.259 42.3984C127.259 58.4997 140.357 71.8343 156.454 72.1267C157.34 72.1432 158.152 72.6203 158.597 73.3873L166.27 86.6055L173.945 73.3873C174.39 72.6216 175.202 72.1444 176.088 72.128C192.186 71.8369 205.282 58.501 205.282 42.3997C205.282 25.9997 191.94 12.6575 175.54 12.6575H157.001V12.6562Z" fill="#3762CC"/>
<path d="M162 314.126C185.171 314.126 203.954 295.342 203.954 272.171C203.954 249.001 185.171 230.217 162 230.217C138.829 230.217 120.046 249.001 120.046 272.171C120.046 295.342 138.829 314.126 162 314.126Z" fill="#E0EBFC"/>
<path d="M162 258.308C160.603 258.308 159.469 257.174 159.469 255.776V242.491C159.469 241.094 160.603 239.96 162 239.96C163.397 239.96 164.531 241.094 164.531 242.491V255.776C164.531 257.174 163.397 258.308 162 258.308Z" fill="#3762CC"/>
<path d="M145.373 270.388C145.115 270.388 144.851 270.348 144.591 270.263L131.291 265.941C129.961 265.509 129.234 264.08 129.666 262.751C130.097 261.424 131.522 260.692 132.856 261.126L146.157 265.448C147.487 265.88 148.214 267.309 147.782 268.638C147.434 269.708 146.442 270.388 145.373 270.388Z" fill="#3762CC"/>
<path d="M143.824 300.937C143.314 300.937 142.797 300.782 142.351 300.462C141.216 299.646 140.955 298.065 141.77 296.93L149.669 285.925C150.483 284.79 152.065 284.528 153.201 285.344C154.337 286.16 154.597 287.741 153.782 288.876L145.884 299.881C145.389 300.569 144.613 300.937 143.824 300.937Z" fill="#3762CC"/>
<path d="M178.629 270.387C177.561 270.387 176.57 269.707 176.222 268.638C175.79 267.309 176.517 265.88 177.847 265.448L191.147 261.126C192.481 260.692 193.905 261.422 194.338 262.751C194.77 264.08 194.043 265.509 192.713 265.941L179.412 270.263C179.152 270.346 178.887 270.387 178.629 270.387Z" fill="#3762CC"/>
<path d="M180.19 300.952C179.401 300.952 178.625 300.585 178.13 299.896L170.222 288.875C169.406 287.74 169.667 286.158 170.802 285.343C171.936 284.525 173.52 284.788 174.335 285.924L182.244 296.945C183.059 298.08 182.798 299.662 181.663 300.477C181.217 300.797 180.7 300.952 180.19 300.952Z" fill="#3762CC"/>
<path d="M148.272 232.517L162 242.491L175.728 232.517C171.426 231.027 166.808 230.216 162 230.216C157.192 230.216 152.574 231.027 148.272 232.517Z" fill="#4671C6"/>
<path d="M143.815 298.42L128.86 297.898C133.651 304.061 140.124 308.854 147.59 311.585L143.815 298.42Z" fill="#4671C6"/>
<path d="M176.413 311.584C183.879 308.853 190.35 304.061 195.142 297.898L180.188 298.42L176.413 311.584Z" fill="#4671C6"/>
<path d="M191.928 263.533L203.953 272.27H203.954C203.974 263.525 201.318 255.401 196.758 248.67L191.928 263.533Z" fill="#4671C6"/>
<path d="M162 255.776L145.375 267.856L151.724 287.401H172.276L178.625 267.856L162 255.776Z" fill="#4671C6"/>
<path d="M172.274 289.932H151.726C150.63 289.932 149.656 289.226 149.318 288.183L142.966 268.639C142.627 267.596 142.998 266.453 143.886 265.809L160.513 253.73C161.4 253.086 162.601 253.086 163.49 253.73L180.116 265.809C181.003 266.453 181.374 267.596 181.036 268.639L174.684 288.183C174.344 289.224 173.37 289.932 172.274 289.932ZM153.565 284.869H170.435L175.65 268.823L162 258.905L148.35 268.823L153.565 284.869Z" fill="#3762CC"/>
<path d="M120.046 272.209L131.987 263.534L127.185 248.754C122.678 255.442 120.046 263.499 120.046 272.17V272.209Z" fill="#4671C6"/>
<path d="M162 245.022C161.479 245.022 160.956 244.862 160.512 244.539L147.324 234.958C146.192 234.137 145.942 232.554 146.764 231.422C147.586 230.292 149.167 230.04 150.301 230.863L162 239.363L173.699 230.863C174.833 230.04 176.415 230.292 177.236 231.422C178.057 232.554 177.806 234.137 176.676 234.958L163.488 244.539C163.044 244.86 162.521 245.022 162 245.022Z" fill="#3762CC"/>
<path d="M203.371 274.38C202.856 274.38 202.335 274.223 201.885 273.896L190.44 265.58C189.553 264.936 189.182 263.793 189.52 262.75L194.197 248.351C194.629 247.022 196.057 246.296 197.388 246.726C198.718 247.158 199.445 248.586 199.013 249.917L194.902 262.568L204.86 269.802C205.992 270.624 206.242 272.207 205.42 273.338C204.926 274.019 204.155 274.38 203.371 274.38Z" fill="#3762CC"/>
<path d="M176.615 313.414C176.384 313.414 176.15 313.383 175.917 313.316C174.571 312.931 173.796 311.529 174.18 310.184L177.753 297.722C178.056 296.668 179.002 295.928 180.098 295.889L194.303 295.393C195.733 295.369 196.872 296.439 196.921 297.834C196.969 299.232 195.877 300.404 194.48 300.452L182.113 300.885L179.047 311.579C178.729 312.69 177.715 313.414 176.615 313.414Z" fill="#3762CC"/>
<path d="M147.393 313.437C146.292 313.437 145.28 312.713 144.961 311.603L141.888 300.886L129.453 300.452C128.056 300.402 126.964 299.23 127.012 297.833C127.061 296.436 128.193 295.345 129.63 295.392L143.903 295.89C144.998 295.928 145.944 296.668 146.248 297.722L149.827 310.207C150.212 311.551 149.435 312.952 148.091 313.338C147.859 313.405 147.625 313.437 147.393 313.437Z" fill="#3762CC"/>
<path d="M120.379 274.5C119.595 274.5 118.823 274.138 118.328 273.456C117.507 272.325 117.758 270.742 118.888 269.921L129.01 262.567L124.917 249.967C124.486 248.637 125.212 247.209 126.542 246.777C127.877 246.346 129.301 247.073 129.733 248.402L134.395 262.75C134.735 263.793 134.364 264.936 133.475 265.58L121.865 274.015C121.415 274.343 120.894 274.5 120.379 274.5Z" fill="#3762CC"/>
<path d="M162 316.657C137.47 316.657 117.515 296.7 117.515 272.171C117.515 247.642 137.471 227.686 162 227.686C186.529 227.686 206.485 247.642 206.485 272.171C206.485 296.7 186.53 316.657 162 316.657ZM162 232.747C140.262 232.747 122.577 250.433 122.577 272.17C122.577 293.907 140.263 311.593 162 311.593C183.737 311.593 201.423 293.907 201.423 272.17C201.423 250.433 183.738 232.747 162 232.747Z" fill="#3762CC"/>
</svg>
