<svg width="268" height="268" viewBox="0 0 268 268" fill="none" xmlns="http://www.w3.org/2000/svg">
<path d="M158.4 131.169L147.55 133.213C145.582 133.583 148.165 131.469 110.545 169.088L166.379 224.922L199.513 191.788C205.749 185.552 205.233 177.332 205.206 178.255C205.243 176.996 205.73 175.837 206.581 174.986L237.608 143.959C238.343 143.224 238.343 142.032 237.608 141.297L194.86 98.5486C194.125 97.8137 192.932 97.8148 192.196 98.5497C158.195 132.553 160.45 130.783 158.4 131.169Z" fill="#F9CFCF"/>
<path d="M166.38 227.017C165.825 227.017 165.292 226.796 164.9 226.403L109.066 170.569C108.248 169.752 108.248 168.426 109.066 167.609C117.703 158.97 124.222 152.427 129.162 147.469C145.127 131.442 145.127 131.442 146.988 131.183L147.163 131.156L158.012 129.112C158.134 129.09 158.244 129.072 158.346 129.057C158.401 129.047 158.45 129.042 158.5 129.032C159.205 128.686 162.86 125.016 172.629 115.204C177.094 110.722 182.962 104.827 190.718 97.0725C191.468 96.3219 192.466 95.9084 193.528 95.9073H193.532C194.594 95.9073 195.593 96.3219 196.344 97.0725L239.091 139.819C240.641 141.37 240.64 143.893 239.091 145.442L208.063 176.47C207.592 176.941 207.322 177.596 207.3 178.317C207.297 178.431 207.284 178.546 207.263 178.653C207.307 181.628 206.127 188.14 200.996 193.27L167.861 226.404C167.468 226.796 166.935 227.017 166.38 227.017ZM113.506 169.089L166.38 221.963L198.034 190.308C202.755 185.588 203.108 179.593 203.131 178.534C203.117 178.424 203.111 178.31 203.114 178.196C203.165 176.402 203.872 174.737 205.102 173.507L235.979 142.63L193.53 100.181C185.851 107.86 180.029 113.705 175.595 118.16C160.92 132.897 160.92 132.897 158.984 133.195L158.787 133.227L147.938 135.271C147.801 135.296 147.68 135.314 147.568 135.33L147.518 135.338C146.631 135.868 142.866 139.646 132.129 150.423C127.473 155.096 121.417 161.176 113.506 169.089ZM158.4 131.169H158.41H158.4Z" fill="#3762CC"/>
<path d="M166.37 238.857C169.311 241.798 174.08 241.798 177.02 238.857L180.07 235.808C183.01 232.867 183.01 228.099 180.07 225.158L181.479 226.567C184.42 229.507 189.187 229.507 192.129 226.567L195.178 223.517C198.119 220.577 198.119 215.808 195.178 212.867C181.692 199.382 138.22 155.909 124.697 142.387C122.213 139.901 118.714 138.714 115.23 139.174L112.926 139.477L71.4251 99.8457C70.7101 99.1307 69.5491 99.1307 68.8341 99.8457L30.3761 138.304C29.6601 139.019 29.6601 140.18 30.3761 140.895L64.7764 175.295C67.6093 178.128 70.4809 180.087 69.121 183.616C66.3572 188.312 67.1183 194.283 70.9718 198.137L107.732 234.896C108.951 236.115 110.356 237.119 111.883 237.891L111.247 238.527L130.924 258.204C133.865 261.145 138.633 261.145 141.574 258.204L144.624 255.155C147.564 252.214 147.564 247.447 144.624 244.506L150.047 249.929C152.987 252.87 157.756 252.87 160.696 249.929L163.746 246.879C166.687 243.939 166.687 239.171 163.746 236.23L166.37 238.857Z" fill="#F9CFCF"/>
<path d="M171.695 243.157C169.125 243.157 166.708 242.155 164.89 240.337C164.073 239.52 164.073 238.193 164.89 237.377C165.708 236.559 167.033 236.559 167.852 237.377C168.878 238.404 170.244 238.969 171.695 238.969C173.147 238.969 174.512 238.404 175.539 237.377L178.59 234.327C179.617 233.301 180.182 231.935 180.182 230.483C180.182 229.031 179.617 227.666 178.59 226.639L149.349 197.399C148.532 196.581 148.532 195.256 149.349 194.438C150.166 193.621 151.493 193.621 152.31 194.438L181.55 223.678C183.367 225.496 184.369 227.912 184.369 230.483C184.369 233.054 183.367 235.47 181.55 237.288L178.501 240.337C176.682 242.155 174.265 243.157 171.695 243.157Z" fill="#3762CC"/>
<path d="M155.369 254.228C152.799 254.228 150.382 253.227 148.564 251.409L121.583 224.428C120.765 223.61 120.765 222.285 121.583 221.467C122.4 220.65 123.726 220.65 124.544 221.467L151.526 248.449C152.553 249.476 153.918 250.041 155.37 250.041C156.822 250.041 158.187 249.476 159.214 248.449L162.265 245.399C163.292 244.373 163.857 243.007 163.857 241.555C163.857 240.103 163.292 238.738 162.265 237.711L135.282 210.729C134.465 209.911 134.465 208.586 135.282 207.768C136.099 206.95 137.425 206.95 138.243 207.768L165.225 234.75C167.043 236.568 168.044 238.984 168.044 241.555C168.044 244.126 167.043 246.542 165.225 248.36L162.176 251.409C160.356 253.227 157.94 254.228 155.369 254.228Z" fill="#3762CC"/>
<path d="M136.248 262.5C133.783 262.5 131.319 261.562 129.443 259.686L109.766 240.009C108.948 239.191 108.948 237.866 109.766 237.048L123.464 223.349C124.281 222.531 125.608 222.531 126.425 223.349L146.102 243.026C149.853 246.778 149.853 252.884 146.102 256.636L143.051 259.686C141.176 261.562 138.712 262.5 136.248 262.5ZM132.404 256.724C134.523 258.843 137.973 258.841 140.092 256.724L143.141 253.675C145.26 251.555 145.26 248.105 143.141 245.985L124.946 227.788L114.208 238.527L132.404 256.724Z" fill="#3762CC"/>
<path d="M136.248 262.5C133.783 262.5 131.319 261.562 129.443 259.686L109.766 240.008C109.411 239.653 109.21 239.202 109.163 238.738C108.109 238.051 107.134 237.261 106.25 236.377L69.4905 199.618C65.0089 195.136 64.0876 188.216 67.2178 182.724C67.7182 181.28 67.0848 180.413 64.5084 177.952C64.1117 177.573 63.7034 177.184 63.2962 176.775L28.8959 142.375C27.3653 140.844 27.3653 138.353 28.8959 136.822L67.3539 98.3654C68.8844 96.8328 71.3759 96.8349 72.9054 98.3654L113.647 137.271L114.955 137.1C119.057 136.554 123.252 137.982 126.177 140.907L196.658 211.388C198.475 213.206 199.477 215.622 199.477 218.193C199.477 220.764 198.475 223.181 196.659 224.999L193.608 228.047C191.791 229.864 189.374 230.866 186.803 230.866C185.971 230.866 185.155 230.761 184.368 230.557C184.348 233.1 183.35 235.487 181.55 237.287L178.501 240.337C175.668 243.169 171.496 243.863 168.005 242.421C167.806 244.664 166.836 246.747 165.224 248.359L162.175 251.408C160.357 253.225 157.94 254.227 155.37 254.227C152.888 254.227 150.55 253.294 148.756 251.593C148.413 253.442 147.53 255.207 146.104 256.634L143.053 259.684C141.176 261.562 138.712 262.499 136.248 262.5ZM113.943 238.262L132.404 256.725C134.523 258.844 137.972 258.842 140.092 256.725L143.141 253.676C145.26 251.556 145.26 248.107 143.141 245.987C142.324 245.17 142.324 243.844 143.141 243.027C143.958 242.209 145.284 242.209 146.102 243.027L151.525 248.449C152.552 249.476 153.917 250.041 155.369 250.041C156.821 250.041 158.186 249.476 159.212 248.449L162.262 245.399C163.289 244.373 163.855 243.008 163.855 241.555C163.855 240.103 163.288 238.739 162.262 237.711C161.445 236.893 161.445 235.567 162.262 234.75C163.081 233.932 164.407 233.934 165.224 234.75C165.228 234.754 165.232 234.76 165.238 234.764L167.851 237.378C169.972 239.496 173.421 239.496 175.54 237.378L178.59 234.327C179.617 233.301 180.182 231.935 180.182 230.483C180.182 229.031 179.617 227.666 178.59 226.639C177.772 225.822 177.772 224.496 178.59 223.678C179.407 222.861 180.733 222.861 181.551 223.678L182.96 225.088C183.987 226.115 185.352 226.68 186.804 226.68C188.256 226.68 189.622 226.115 190.649 225.088L193.699 222.039C194.725 221.012 195.291 219.647 195.291 218.194C195.291 216.742 194.726 215.377 193.699 214.35L123.218 143.869C121.207 141.859 118.326 140.881 115.505 141.252L113.201 141.555C112.574 141.638 111.94 141.432 111.481 140.994L70.1333 101.507L32.0417 139.599L66.2567 173.816C66.6409 174.2 67.0262 174.567 67.401 174.925C69.9072 177.319 72.7474 180.032 71.0744 184.37C71.0326 184.477 70.9834 184.58 70.9247 184.679C68.6457 188.553 69.2728 193.478 72.4511 196.658L109.211 233.416C110.258 234.462 111.473 235.34 112.826 236.022C113.425 236.325 113.843 236.897 113.949 237.56C113.987 237.796 113.984 238.033 113.943 238.262ZM69.9794 101.359C69.9805 101.362 69.9826 101.363 69.9846 101.365L69.9794 101.359Z" fill="#3762CC"/>
<path d="M129.01 220.659L108.297 240.264C106.032 242.408 105.933 245.983 108.077 248.249L113.63 254.115C115.774 256.381 119.349 256.479 121.614 254.335L142.327 234.73C146.212 231.053 146.38 224.922 142.703 221.037C139.025 217.15 132.895 216.982 129.01 220.659Z" fill="#F9CFCF"/>
<path d="M111.936 210.145L94.9798 226.195C92.7144 228.339 92.616 231.914 94.76 234.18L100.313 240.046C102.457 242.312 106.032 242.41 108.297 240.266L125.253 224.217C129.138 220.539 129.307 214.408 125.629 210.523C121.952 206.636 115.821 206.468 111.936 210.145Z" fill="#F9CFCF"/>
<path d="M93.978 200.467L81.6615 212.124C79.396 214.268 79.2976 217.843 81.4416 220.109L86.9943 225.975C89.1383 228.241 92.7133 228.339 94.9788 226.195L107.295 214.538C111.18 210.861 111.349 204.73 107.671 200.845C103.994 196.958 97.8629 196.789 93.978 200.467Z" fill="#F9CFCF"/>
<path d="M75.3572 191.417L68.3442 198.055C66.0788 200.199 65.9804 203.774 68.1244 206.04L73.677 211.906C75.821 214.172 79.3961 214.27 81.6615 212.126L88.6745 205.488C92.5595 201.81 92.728 195.68 89.0503 191.795C85.3737 187.908 79.2432 187.739 75.3572 191.417Z" fill="#F9CFCF"/>
<path d="M117.734 257.97C115.68 257.97 113.63 257.161 112.109 255.554L106.556 249.687C105.136 248.185 104.384 246.219 104.44 244.152C104.497 242.086 105.355 240.164 106.858 238.742L127.57 219.138C132.288 214.673 139.759 214.879 144.224 219.596C148.689 224.313 148.484 231.784 143.766 236.249L123.054 255.854C121.559 257.268 119.644 257.97 117.734 257.97ZM135.662 220.101C133.714 220.101 131.87 220.835 130.449 222.179L109.737 241.784C108.313 243.131 108.251 245.385 109.598 246.809L115.151 252.676C116.498 254.099 118.752 254.161 120.175 252.814L140.887 233.21C143.928 230.331 144.06 225.516 141.183 222.476C139.788 221.003 137.905 220.161 135.877 220.104C135.805 220.102 135.734 220.101 135.662 220.101ZM129.01 220.659H129.02H129.01Z" fill="#3762CC"/>
<path d="M104.416 243.9C102.362 243.9 100.313 243.091 98.7926 241.485L93.2399 235.618C91.8183 234.116 91.0666 232.15 91.1242 230.084C91.1807 228.017 92.0392 226.096 93.5414 224.674L110.497 208.625C115.215 204.159 122.685 204.367 127.15 209.083C131.615 213.801 131.41 221.273 126.693 225.737L109.737 241.785C108.242 243.2 106.327 243.9 104.416 243.9ZM113.374 211.666L96.4182 227.715C95.7284 228.368 95.3347 229.25 95.3086 230.198C95.2824 231.147 95.6279 232.05 96.2801 232.739L101.833 238.606C103.18 240.028 105.433 240.09 106.858 238.743L123.813 222.695C126.854 219.818 126.986 215.001 124.108 211.961C121.231 208.919 116.416 208.788 113.374 211.666Z" fill="#3762CC"/>
<path d="M91.0991 229.83C89.0451 229.831 86.9953 229.021 85.4742 227.414L79.9216 221.547C78.4999 220.045 77.7483 218.079 77.8058 216.012C77.8634 213.945 78.7219 212.024 80.2231 210.603L92.5396 198.946C94.8259 196.783 97.8336 195.648 100.961 195.726C104.106 195.812 107.03 197.118 109.193 199.404C111.356 201.689 112.5 204.68 112.413 207.825C112.327 210.97 111.02 213.894 108.736 216.056L96.4193 227.714C94.9243 229.128 93.0096 229.83 91.0991 229.83ZM95.4174 201.987L83.1009 213.644C82.411 214.297 82.0174 215.179 81.9913 216.128C81.9651 217.077 82.3105 217.98 82.9628 218.669L88.5154 224.536C89.8617 225.959 92.1156 226.021 93.5393 224.674L105.855 213.017C107.328 211.623 108.169 209.738 108.226 207.712C108.282 205.685 107.544 203.756 106.15 202.283C104.756 200.811 102.872 199.968 100.844 199.912C98.8072 199.855 96.8904 200.594 95.4174 201.987Z" fill="#3762CC"/>
<path d="M77.7818 215.76C75.7278 215.76 73.678 214.951 72.1569 213.344L66.6043 207.477C65.1837 205.975 64.432 204.009 64.4886 201.943C64.5451 199.876 65.4035 197.955 66.9058 196.533L73.9178 189.896C78.636 185.43 86.1065 185.637 90.5714 190.353C92.7343 192.639 93.8785 195.63 93.7916 198.774C93.7047 201.92 92.3982 204.844 90.114 207.006L83.1009 213.644C81.6071 215.059 79.6934 215.76 77.7818 215.76ZM76.7967 192.937L69.7837 199.575C68.3599 200.923 68.2981 203.175 69.6455 204.599L75.1981 210.466C76.5454 211.888 78.7993 211.952 80.222 210.605L87.2351 203.967C88.708 202.572 89.5497 200.688 89.6062 198.661C89.6628 196.635 88.9247 194.706 87.5303 193.233C84.6535 190.191 79.8378 190.061 76.7967 192.937Z" fill="#3762CC"/>
<path d="M151.173 138.488L146.24 133.555C145.295 133.879 147.007 133.026 122.468 145.972C121.099 146.694 119.956 147.778 119.163 149.106L100.283 180.73C100.187 180.892 100.11 181.059 100.05 181.23C100.033 181.277 100.028 181.325 100.014 181.373C99.9776 181.5 99.94 181.627 99.9222 181.755C99.9211 181.766 99.9222 181.777 99.9211 181.788C99.7882 182.83 100.263 183.898 101.218 184.476C105.88 187.268 111.74 187.22 116.319 184.511C120.438 182.067 120.305 181.316 134.721 157.168C135.165 156.424 135.758 155.778 136.46 155.271L139.153 153.329L151.173 138.488Z" fill="#F9CFCF"/>
<path d="M108.431 188.691C105.581 188.691 102.921 188.014 100.936 186.827C97.9216 185.028 96.9595 182.214 98.4848 179.657L117.365 148.033C118.356 146.375 119.782 145.021 121.491 144.121L144.017 132.238C145.534 131.436 146.001 131.349 151.73 130.287C153.009 130.049 154.567 129.76 156.479 129.4C157.61 129.188 158.709 129.935 158.923 131.071C159.138 132.208 158.389 133.302 157.253 133.516C155.337 133.876 153.777 134.166 152.494 134.405C146.925 135.438 146.889 135.457 145.97 135.942L123.444 147.825C122.415 148.368 121.557 149.183 120.96 150.182L102.08 181.806C101.838 182.212 102.174 182.691 103.082 183.232C106.592 185.329 115.379 185.483 119.66 178.311L132.921 156.097C133.514 155.103 134.293 154.254 135.233 153.577L137.925 151.635C138.863 150.958 140.17 151.17 140.848 152.108C141.524 153.046 141.312 154.354 140.374 155.031L137.682 156.973C137.207 157.315 136.814 157.742 136.515 158.245L123.254 180.458C119.756 186.319 113.761 188.691 108.431 188.691Z" fill="#3762CC"/>
<path d="M134 116.557C164.09 116.557 188.484 92.1638 188.484 62.0734C188.484 31.983 164.09 7.58984 134 7.58984C103.91 7.58984 79.5164 31.983 79.5164 62.0734C79.5164 92.1638 103.91 116.557 134 116.557Z" fill="#E0EBFC"/>
<path d="M79.5175 62.1237L95.0249 50.8572L88.7886 31.6628C82.9355 40.3487 79.5175 50.8122 79.5175 62.0734C79.5164 62.0902 79.5175 62.1069 79.5175 62.1237Z" fill="#4671C6"/>
<path d="M116.172 10.5766L134 23.5296L151.828 10.5766C146.241 8.643 140.245 7.58984 134 7.58984C127.755 7.58984 121.759 8.643 116.172 10.5766Z" fill="#4671C6"/>
<path d="M110.385 96.1607L90.963 95.4834C97.1856 103.488 105.591 109.711 115.287 113.258L110.385 96.1607Z" fill="#4671C6"/>
<path d="M152.717 113.256C162.412 109.709 170.815 103.486 177.038 95.4823L157.62 96.1607L152.717 113.256Z" fill="#4671C6"/>
<path d="M172.866 50.8561L188.481 62.2011C188.483 62.2011 188.483 62.2011 188.483 62.2001C188.509 50.8425 185.058 40.2921 179.137 31.5528L172.866 50.8561Z" fill="#4671C6"/>
<path d="M134 40.7831L112.409 56.4695L120.657 81.8499H147.343L155.591 56.4695L134 40.7831Z" fill="#4671C6"/>
<path d="M147.343 83.9447H120.657C119.749 83.9447 118.946 83.3606 118.665 82.4979L110.419 57.1164C110.139 56.2538 110.446 55.3085 111.18 54.7756L132.771 39.0903C133.505 38.5564 134.498 38.5564 135.233 39.0903L156.824 54.7756C157.558 55.3095 157.865 56.2538 157.585 57.1164L149.339 82.4979C149.054 83.3606 148.251 83.9447 147.343 83.9447ZM122.178 79.7572H145.822L153.129 57.2693L134 43.371L114.872 57.2682L122.178 79.7572Z" fill="#3762CC"/>
<path d="M134 118.651C102.803 118.651 77.4227 93.2703 77.4227 62.0734C77.4227 30.8765 102.803 5.49609 134 5.49609C165.197 5.49609 190.577 30.8765 190.577 62.0734C190.577 93.2703 165.197 118.651 134 118.651ZM134 9.68359C105.113 9.68359 81.6102 33.1849 81.6102 62.0734C81.6102 90.9619 105.113 114.463 134 114.463C162.887 114.463 186.39 90.9619 186.39 62.0734C186.39 33.1849 162.887 9.68359 134 9.68359Z" fill="#3762CC"/>
<path d="M188.192 64.0855C187.764 64.0855 187.334 63.9557 186.962 63.6856L171.636 52.55C170.902 52.0161 170.596 51.0718 170.875 50.2092L176.975 31.4345C177.333 30.3353 178.515 29.7365 179.614 30.0903C180.714 30.4484 181.316 31.6292 180.959 32.7295L175.329 50.0574L189.425 60.2979C190.361 60.9773 190.567 62.287 189.887 63.2229C189.477 63.7861 188.838 64.0855 188.192 64.0855Z" fill="#3762CC"/>
<path d="M155.59 58.5632C154.707 58.5632 153.886 58 153.599 57.1154C153.242 56.0151 153.844 54.8343 154.943 54.4762L172.218 48.8639C173.323 48.508 174.499 49.11 174.857 50.2081C175.214 51.3084 174.613 52.4893 173.513 52.8473L156.238 58.4596C156.022 58.5297 155.804 58.5632 155.59 58.5632Z" fill="#3762CC"/>
<path d="M152.807 115.039C152.616 115.039 152.422 115.013 152.229 114.957C151.117 114.638 150.475 113.479 150.794 112.367L155.607 95.5839C155.857 94.7118 156.64 94.0994 157.546 94.068L176.497 93.4064C177.632 93.3635 178.622 94.269 178.663 95.4268C178.703 96.5826 177.799 97.5509 176.643 97.5918L159.213 98.2L154.819 113.521C154.555 114.439 153.718 115.039 152.807 115.039Z" fill="#3762CC"/>
<path d="M157.621 98.2534C156.97 98.2534 156.328 97.9509 155.918 97.3814L145.643 83.0716C144.968 82.1326 145.184 80.824 146.123 80.1488C147.061 79.4756 148.369 79.6892 149.045 80.6282L159.32 94.938C159.995 95.877 159.779 97.1856 158.84 97.8608C158.471 98.1257 158.044 98.2534 157.621 98.2534Z" fill="#3762CC"/>
<path d="M110.386 98.2545C110.361 98.2545 110.336 98.2544 110.311 98.2534L91.2216 97.5865C90.0658 97.5457 89.1624 96.5763 89.2021 95.4216C89.243 94.2648 90.205 93.3394 91.3681 93.4011L110.457 94.068C111.613 94.1088 112.517 95.0782 112.477 96.2329C112.438 97.3646 111.509 98.2545 110.386 98.2545Z" fill="#3762CC"/>
<path d="M114.769 113.55C113.858 113.55 113.021 112.952 112.758 112.033L108.372 96.7396C108.196 96.1241 108.311 95.4614 108.683 94.9411L118.955 80.6303C119.631 79.6902 120.938 79.4767 121.877 80.1498C122.816 80.825 123.032 82.1326 122.358 83.0716L112.676 96.5596L116.782 110.879C117.101 111.992 116.459 113.15 115.347 113.47C115.155 113.523 114.96 113.55 114.769 113.55Z" fill="#3762CC"/>
<path d="M79.9477 63.9054C79.3008 63.9054 78.6622 63.606 78.2518 63.0428C77.5724 62.1069 77.7797 60.7973 78.7156 60.1178L92.5636 50.0584L86.9576 32.8049C86.6006 31.7046 87.2026 30.5237 88.3018 30.1657C89.401 29.8098 90.583 30.4107 90.941 31.5099L97.017 50.2102C97.2976 51.0728 96.9898 52.0182 96.256 52.551L81.1768 63.5055C80.8051 63.7756 80.3738 63.9054 79.9477 63.9054Z" fill="#3762CC"/>
<path d="M112.41 58.5632C112.197 58.5632 111.98 58.5297 111.766 58.4606L94.381 52.8494C93.2808 52.4945 92.6767 51.3136 93.0316 50.2133C93.3865 49.1131 94.5674 48.5132 95.6677 48.8639L113.053 54.4752C114.153 54.8301 114.757 56.0109 114.403 57.1112C114.116 57.9979 113.294 58.5632 112.41 58.5632Z" fill="#3762CC"/>
<path d="M134 25.6244C133.568 25.6244 133.136 25.4914 132.769 25.2245L115.234 12.484C114.298 11.8046 114.091 10.496 114.77 9.55902C115.449 8.62416 116.76 8.41688 117.694 9.0963L134 20.9427L150.267 9.12247C151.203 8.4441 152.513 8.64929 153.191 9.58519C153.871 10.5211 153.665 11.8307 152.729 12.5102L135.231 25.2245C134.864 25.4914 134.432 25.6244 134 25.6244Z" fill="#3762CC"/>
<path d="M134 42.8769C132.844 42.8769 131.906 41.9389 131.906 40.7831V23.5306C131.906 22.3749 132.844 21.4369 134 21.4369C135.156 21.4369 136.094 22.3749 136.094 23.5306V40.7831C136.094 41.9399 135.156 42.8769 134 42.8769Z" fill="#3762CC"/>
</svg>
